<svg  viewBox="0 0 31 32">
<path fill="#fff" style="fill: var(--color1, #fff)" d="M15.673 11.835c-0.552-0.009-1.101 0.093-1.614 0.298s-0.98 0.511-1.373 0.898c-0.394 0.388-0.706 0.85-0.92 1.359s-0.323 1.057-0.323 1.609 0.11 1.099 0.324 1.609c0.213 0.51 0.526 0.972 0.92 1.359s0.861 0.693 1.374 0.898c0.513 0.205 1.062 0.306 1.614 0.298 1.093-0.017 2.135-0.464 2.902-1.243s1.196-1.829 1.196-2.922c-0-1.093-0.43-2.143-1.197-2.922s-1.809-1.225-2.903-1.242zM15.673 18.723c-0.358 0-0.712-0.070-1.043-0.206s-0.631-0.337-0.884-0.59c-0.253-0.253-0.454-0.553-0.591-0.884s-0.207-0.685-0.207-1.043c-0-0.358 0.070-0.712 0.207-1.043s0.338-0.631 0.591-0.884 0.553-0.454 0.884-0.59c0.331-0.137 0.685-0.207 1.043-0.206 0.722 0.002 1.413 0.289 1.924 0.8s0.798 1.202 0.8 1.923c0 0.358-0.070 0.712-0.207 1.043s-0.337 0.631-0.59 0.884c-0.253 0.253-0.553 0.453-0.884 0.59s-0.685 0.207-1.043 0.206zM20.255 10.312c-0.127-0.001-0.252 0.024-0.369 0.072s-0.223 0.119-0.313 0.209c-0.089 0.090-0.16 0.196-0.208 0.313s-0.072 0.242-0.072 0.369c0 0.535 0.425 0.96 0.961 0.96 0.127 0.001 0.252-0.023 0.369-0.071s0.223-0.119 0.313-0.208 0.16-0.196 0.209-0.313c0.048-0.117 0.073-0.242 0.072-0.369 0.001-0.127-0.024-0.252-0.072-0.369s-0.119-0.223-0.208-0.313c-0.090-0.089-0.196-0.16-0.313-0.208s-0.243-0.073-0.369-0.072z"></path>
<path fill="#fff" style="fill: var(--color1, #fff)" d="M15.675 0.483c-8.572 0-15.52 6.945-15.52 15.517 0 8.569 6.948 15.517 15.52 15.517 8.567 0 15.517-6.946 15.517-15.517 0-8.571-6.95-15.517-15.517-15.517zM23.684 19.412c0 2.532-2.068 4.599-4.614 4.599h-6.792c-2.547 0-4.615-2.068-4.615-4.583v-6.84c0-2.531 2.067-4.598 4.615-4.598h6.792c2.547 0 4.614 2.067 4.614 4.598v6.824z"></path>
</svg>