<svg  viewBox="0 0 235 73">
<path d="M26.2355 0.996398C21.272 2.63844 18.2865 7.48994 18.7716 13.2371C19.1075 17.2303 21.1974 20.9249 23.959 22.343L25.0413 22.9028L23.1753 23.8358C21.1227 24.8807 19.8166 26.1869 18.5477 28.6126C17.8386 29.9188 17.7267 30.7398 17.7267 34.2478C17.7267 38.1663 17.8013 38.4649 18.8836 40.4055C20.9361 44.0254 24.5561 46.0034 29.1464 46.0034C37.6551 46.0034 42.6186 38.2783 39.7077 29.5083C39.1106 27.6423 36.6102 24.5448 35.4533 24.1716C34.2964 23.7984 34.5576 23.3879 36.237 22.9028C37.6178 22.4923 37.7671 22.343 37.5805 21.4473C37.1327 19.2455 36.5729 18.3125 35.9011 18.5737C33.2888 19.5814 30.7511 19.9546 28.9224 19.544C25.4144 18.7603 23.5112 16.148 23.5112 12.1175C23.5112 6.37036 27.467 3.68338 33.9605 5.02687C35.4906 5.36275 36.7968 5.58666 36.8341 5.54934C36.8714 5.54934 37.058 4.61636 37.2446 3.5341C37.5805 1.59351 37.5805 1.51887 36.6102 1.14567C35.0428 0.511248 28.0268 0.399291 26.2355 0.996398ZM31.9826 27.3064C35.9385 29.1351 37.17 35.7779 34.2591 39.5098C33.2515 40.7787 30.8257 41.8609 28.9971 41.8983C22.8394 41.9356 19.7046 33.688 24.071 28.8738C26.1235 26.6347 29.1464 26.0376 31.9826 27.3064Z" fill="#43291B"/>
<path d="M65.6445 0.996395C60.8304 2.71308 58.218 6.6316 58.218 12.2295C58.218 17.3795 60.7184 21.2607 65.1221 23.052L67.3612 23.9477L67.4732 34.5837L67.5478 45.257H69.787H72.0261V34.509V23.7611L73.6309 23.3506C83.4085 20.7383 83.9683 4.80295 74.3772 1.22031C72.0261 0.361968 67.7344 0.250011 65.6445 0.996395ZM72.2874 4.98955C75.9073 6.33304 77.6613 11.8936 75.7954 15.9987C73.5935 20.8502 66.5775 21.0741 63.9652 16.3719C61.6887 12.3414 63.1815 6.74355 66.988 5.10151C68.3688 4.5044 70.8692 4.42976 72.2874 4.98955Z" fill="#43291B"/>
<path d="M38.812 3.08627V4.95223H42.1707H45.5295V25.1046V45.257H47.7686H49.9705L50.0824 40.1069L50.1944 34.9942L54.7846 40.4801C57.3223 43.5403 59.4869 46.0034 59.5988 46.0034C60.0466 46.0034 63.4427 43.9881 63.4427 43.7269C63.4427 43.5776 61.6141 41.3385 59.3376 38.8008C57.0984 36.2257 55.2325 34.0239 55.2325 33.8746C55.2325 33.6507 59.7108 28.0528 62.2485 25.03C62.7709 24.4329 62.6217 24.2836 60.6811 23.3879C59.4869 22.8655 58.4046 22.5669 58.218 22.7162C58.0687 22.9028 56.2028 25.4032 54.0756 28.2767L50.1944 33.5014L50.0824 19.6933C50.0451 12.1175 50.0824 5.6613 50.1944 5.43738C50.3063 5.10151 51.3886 4.95223 53.7397 4.95223H57.0984V3.08627V1.22031H47.9552H38.812V3.08627Z" fill="#43291B"/>
<path d="M133.23 22.8281C129.871 23.9104 127.408 26.1122 125.99 29.1724C124.907 31.5981 124.907 36.8975 126.027 39.3232C127.109 41.749 129.125 43.8388 131.326 44.8838L133.23 45.7421V56.5274V67.2753H135.469H137.708V58.3187V49.3621H141.813H145.918V58.3187V67.2753H148.344H150.77V56.2661V45.257H146.217H141.664L143.343 44.212C146.478 42.1968 148.157 38.6888 148.157 34.2105C148.157 27.1945 144.052 22.8655 137.185 22.6042C135.506 22.5669 133.752 22.6415 133.23 22.8281ZM138.79 26.9706C140.731 27.5304 142.485 29.4336 143.157 31.7474C145.097 38.3902 139.611 43.8388 133.752 41.1892C130.953 39.9203 129.684 37.3826 129.946 33.5014C130.244 28.5007 134.163 25.6271 138.79 26.9706Z" fill="#43291B"/>
<path d="M182.79 23.164C181.782 23.4626 180.998 23.8358 180.998 23.9477C180.998 24.097 182.752 27.7543 184.917 32.1579C187.081 36.5243 188.761 40.2562 188.649 40.4428C188.537 40.5921 187.492 41.0399 186.298 41.4131C185.141 41.749 184.133 42.0848 184.058 42.0848C184.021 42.1222 184.208 42.8685 184.506 43.6896L185.066 45.257H182.006H178.946L177.49 35.2554C176.706 29.7695 175.96 24.8434 175.885 24.2463C175.699 23.276 175.587 23.2386 173.534 23.2386C171.818 23.2386 171.333 23.3879 171.109 23.8731C170.176 26.2615 166.444 36.487 165.884 38.129L165.212 40.1442L163.645 35.7033C162.749 33.2775 161.406 29.471 160.622 27.2691L159.166 23.2386H156.927H154.688L153.083 34.0985C152.225 40.1069 151.553 45.0331 151.628 45.1077C151.703 45.1823 152.785 45.3689 154.016 45.4809L156.218 45.7048L156.89 39.4352C157.226 35.9645 157.636 32.3072 157.748 31.2996L157.972 29.471L158.644 32.046C158.98 33.4641 160.137 36.9721 161.182 39.8457C162.227 42.682 163.085 45.0704 163.085 45.145C163.085 45.2197 161.928 45.257 160.473 45.257H157.86V56.2661V67.2753H164.988H172.079L171.967 65.484L171.855 63.73L167.115 63.618L162.339 63.5061V60.5579V57.5723H166.444H170.549V55.893V54.2509L166.556 54.139L162.525 54.027L162.413 51.4893L162.301 48.9889H166.444H170.549V47.1229V45.257H168.869H167.227L169.28 39.3605C170.4 36.1511 171.556 32.6431 171.818 31.6355L172.303 29.7695L172.527 31.4489C172.676 32.3819 173.049 35.6286 173.348 38.7261C174.131 45.8541 174.057 45.6302 175.624 45.6302H176.893V56.4527V67.2753H179.132H181.334L181.446 63.2448L181.558 59.2517L184.544 59.0651C189.619 58.7292 191.97 56.5274 191.97 52.1984C191.97 49.3994 191.149 47.7947 189.059 46.5632L187.604 45.7048L189.47 44.8838C190.515 44.436 191.783 43.6523 192.306 43.0925C193.015 42.3088 197.12 33.0163 200.665 24.097C200.815 23.6865 200.143 23.4252 197.045 22.6789C196.112 22.4549 196.075 22.5669 193.873 29.2097C192.642 32.9043 191.56 35.9272 191.448 35.9272C191.336 35.9272 189.918 32.9043 188.313 29.2097C186.708 25.5151 185.178 22.4923 184.954 22.5296C184.73 22.5296 183.76 22.8281 182.79 23.164ZM186.372 49.7726C187.156 50.407 187.342 50.8549 187.342 52.1984C187.342 53.3179 187.119 54.0643 186.633 54.5495C185.85 55.3332 183.872 55.8556 182.454 55.6317C181.595 55.5198 181.558 55.3705 181.446 52.2357L181.334 48.9889H183.349C184.842 48.9889 185.626 49.2128 186.372 49.7726Z" fill="#43291B"/>
<path d="M0 34.2105V45.257H2.23915H4.47831V41.1519V37.0468H7.01601C12.0914 37.0468 14.9277 34.5464 14.9277 30.0681C14.9277 27.2318 14.032 25.5898 11.9048 24.3582C10.4121 23.4999 9.77763 23.4252 5.15005 23.3133L0 23.164V34.2105ZM9.59104 27.7916C10.7479 28.8738 10.7479 31.0384 9.59104 32.3819C8.88197 33.2402 8.39682 33.3895 6.71746 33.4268L4.6649 33.5014L4.55294 30.2173L4.44099 26.9706H6.56818C8.24755 26.9706 8.91929 27.1572 9.59104 27.7916Z" fill="#43291B"/>
<path d="M79.1167 34.2478V45.2943L84.6399 45.1823C89.3422 45.0704 90.3498 44.9584 91.6186 44.2867C93.7458 43.1671 94.7908 41.4877 94.7908 39.1366C94.7908 37.3453 93.7831 34.8449 93.0368 34.8076C92.8502 34.8076 92.4397 34.5464 92.0665 34.2851C91.4694 33.8 91.4694 33.7253 92.1784 32.1579C93.1114 30.0681 93.1487 27.493 92.2157 26.0003C90.9842 24.0223 89.2675 23.4252 83.8936 23.3133L79.1167 23.164V34.2478ZM88.1853 27.7543C88.9317 28.6872 88.857 29.9188 87.9614 31.7847C87.5882 32.6058 87.2523 32.755 85.5356 32.867L83.595 32.979V29.7322V26.4854L85.5356 26.672C86.9537 26.8213 87.6628 27.0825 88.1853 27.7543ZM89.4914 36.8975C90.0885 37.308 90.3125 37.8305 90.3125 38.8754C90.3125 40.9653 89.3422 41.6743 86.17 41.8236L83.595 41.9729V39.1366V36.3004H86.1327C87.8121 36.3004 88.9317 36.487 89.4914 36.8975Z" fill="#43291B"/>
<path d="M105.613 25.2912V27.3438H108.972H112.331V47.3095V67.2753H117.668C122.444 67.2753 123.153 67.2007 124.646 66.417C126.923 65.2974 128.005 63.5807 128.005 61.155C128.005 58.8039 127.371 57.7216 124.945 56.0422C124.758 55.9303 124.945 55.1093 125.355 54.1763C127.557 49.3621 125.094 45.7421 119.384 45.3316L116.809 45.145V36.263V27.3811L120.28 27.2691L123.713 27.1572L123.825 25.1792L123.937 23.2386H114.794H105.613V25.2912ZM121.287 49.5487C121.959 50.2578 121.959 52.1984 121.25 53.6538C120.765 54.6614 120.504 54.7734 118.75 54.8853L116.809 54.9973V51.7505V48.5038L118.787 48.765C119.832 48.9143 120.989 49.2875 121.287 49.5487ZM122.78 59.0651C123.9 60.1847 123.788 62.1626 122.556 63.1329C121.773 63.73 121.026 63.9166 119.198 63.9166H116.809V61.1176V58.3187H119.422C121.549 58.3187 122.183 58.468 122.78 59.0651Z" fill="#43291B"/>
<path d="M196.299 56.2661V67.2753H203.39H210.48V65.4094V63.5434H205.815H201.151V60.5579V57.5723H205.256H209.361V55.893V54.2136H205.256H201.151V51.6012V48.9889H205.256H209.361V47.1229V45.257H202.83H196.299V56.2661Z" fill="#43291B"/>
<path d="M217.459 51.1161C217.31 55.7064 217.086 57.7216 216.414 60.1847C215.593 63.0956 215.444 63.3568 214.511 63.4688L213.466 63.5807V68.059V72.5H215.108H216.787L217.011 70.746C217.496 66.8648 216.75 67.238 223.803 67.3499L230.036 67.4619L230.297 68.5815C230.446 69.1786 230.67 70.3355 230.782 71.0819C231.043 72.4627 231.081 72.5 232.685 72.5H234.365V68.0217V63.5434H233.245H232.126V54.4002V45.257H224.886H217.646L217.459 51.1161ZM227.573 56.3408L227.461 63.3568L223.766 63.4688C220.109 63.5807 220.071 63.5807 220.333 62.7224C221.34 59.289 222.049 55.0346 222.049 52.4223V49.3621H224.848H227.647L227.573 56.3408Z" fill="#43291B"/>
</svg>
